<?xml version="1.0" encoding="utf-8"?>
<!-- Generator: Adobe Illustrator 16.0.0, SVG Export Plug-In . SVG Version: 6.00 Build 0)  -->
<!DOCTYPE svg PUBLIC "-//W3C//DTD SVG 1.1//EN" "http://www.w3.org/Graphics/SVG/1.1/DTD/svg11.dtd">
<svg version="1.1" id="圖層_1" xmlns="http://www.w3.org/2000/svg" xmlns:xlink="http://www.w3.org/1999/xlink" x="0px" y="0px"
	 width="393.386px" height="365.086px" viewBox="0 0 393.386 365.086" enable-background="new 0 0 393.386 365.086"
	 xml:space="preserve">
<g>
	<path fill="#FFFFFF" d="M364.703,304.754c-31.775,35.119-77.146,55.261-124.477,55.261c-35.152,0-68.836-10.802-97.408-31.235
		l-0.202-0.166c-14.079-13.359-20.709-34.023-17.735-55.277c1.495-10.68,5.525-20.575,9.792-31.053
		c1.148-2.818,2.326-5.711,3.434-8.574c7.115-18.435,9.351-33.127,6.833-44.92l-0.994-4.658l-3.31,3.428
		c-4.034,4.18-8.395,7.771-12.611,11.248c-4.32,3.561-8.387,6.91-12.055,10.783c-8.432,8.904-13.79,18.343-15.924,28.057
		c-2.328,10.582-0.958,22.584,3.96,34.709c3.872,9.533,9.333,18.1,16.232,25.458l0.36,0.384l0.11,0.516
		c0.611,2.865,1.405,5.705,2.36,8.439l2.819,8.074l-5.961-6.133c-8.438-8.682-15.95-18.284-22.329-28.543l-1.155-1.857l0.115-0.051
		c-2.566-4.396-7.168-13.27-7.399-13.715l-0.138-0.268l-0.049-0.297c-6.771-41.189,3.055-62.775,8.925-75.675l0.263-0.578
		c0.894-1.965,2.155-4.829,3.615-8.147c11.004-24.991,23.317-52.188,30.158-58.573c2.387-2.229,6.959-4.988,12.748-8.481
		c15.751-9.509,39.555-23.877,47.247-43.937c3.979-10.377,6.177-23.156,6.531-37.984l0.035-1.448l1.406-0.344
		c13.105-3.202,26.674-4.826,40.324-4.826c47.328,0,92.695,20.14,124.473,55.254c0.938,1.035,2.547,1.115,3.582,0.179
		c1.037-0.938,1.117-2.544,0.18-3.581C335.72,40.047,288.981,19.3,240.225,19.3c-13.34,0-26.615,1.505-39.458,4.474l-2.26,0.521
		l-0.057-2.317c-0.225-9.03-1.058-16.858-1.743-21.978c-3.881,8.081-11.449,20.263-30.705,35.812l-0.173,0.139l-0.2,0.096
		c-22.646,10.814-42.354,26.249-58.579,45.875l-2.501,3.026l-0.807-3.842c-0.481-2.292-1.051-4.624-1.692-6.928
		c-5.674-20.384-26.092-42.404-35.422-51.67c1.23,9.694-0.485,25.408-5.084,46.202c-6.09,27.529-1.918,50.076,13.128,70.956
		l0.55,0.763l-0.276,0.898c-5.05,16.428-7.611,33.541-7.611,50.865c0,22.896,4.429,45.158,13.164,66.165l2.411,5.8l-5.212-3.504
		c-4.762-3.199-8.17-8.671-10.129-16.262c-6.944-26.908-17.159-47.82-30.36-62.158C24.482,168.414,8.298,160.71,0,157.409
		c3.328,6.494,3.798,14.664,4.362,24.438c0.702,12.173,1.576,27.323,8.67,44.538c9.661,23.439,35.723,30.521,51.294,34.752
		c4.699,1.277,8.412,2.285,10.928,3.468c5.091,2.392,9.498,5.828,13.099,10.214l0.112,0.137l0.085,0.154
		c12.351,22.502,29.911,42.352,50.78,57.4l0.099,0.072l0.221,0.158c29.483,21.16,64.264,32.346,100.578,32.346
		c48.764,0,95.504-20.75,128.238-56.932c0.938-1.035,0.857-2.645-0.18-3.582C367.246,303.64,365.638,303.721,364.703,304.754z
		 M119.859,272.631c-0.47,3.354-0.722,6.75-0.749,10.1l-0.052,6.281l-3.425-5.266c-2.697-4.146-5.027-8.621-6.926-13.299
		c-3.16-7.789-6.368-19.613-3.709-31.713c1.936-8.804,6.867-17.438,14.654-25.658c3.451-3.646,7.401-6.9,11.584-10.347
		c2-1.647,4.268-3.517,6.473-5.442l3.143-2.746l-0.007,4.174c-0.016,9.211-2.53,20.369-7.472,33.168
		c-1.091,2.826-2.253,5.682-3.378,8.443C125.787,250.657,121.444,261.318,119.859,272.631z M105.483,92.876l-0.07-0.842l0.58-0.614
		c0.074-0.078,0.133-0.147,0.181-0.211c8.268-10.959,17.787-20.86,28.292-29.429l7.226-5.895l-4.358,8.243
		c-7.856,14.859-8.331,31.187-8.645,41.992c-0.132,4.555-0.237,8.153-0.853,10.507c-1.433,5.478-6.261,14.779-11.372,24.627
		c-3.253,6.268-6.617,12.748-9.319,18.634c-4.036,8.79-8.289,15.765-10.831,19.932c-0.939,1.54-1.694,2.777-2.106,3.56l-0.259,0.918
		l-1.135,0.26l-1.122,0.234l-0.733-0.89c-0.434-0.528-0.58-0.706-0.579-5.744c0-1.957,0.045-5.954,0.345-10.74
		c0.478-7.63,1.662-18.167,4.59-25.044l0.145-0.34C100.723,129.677,107.273,114.295,105.483,92.876z M66.496,69.806
		c2.563-11.59,4.265-21.675,5.055-29.975l0.422-4.425l2.896,3.372c11.845,13.793,19.346,26.16,22.296,36.759
		c8.341,29.966,0.186,49.114-6.366,64.501l-0.149,0.351c-0.666,1.563-1.287,3.344-1.848,5.292l-1.289,4.478l-2.197-4.108
		c-1.021-1.908-2.166-3.665-3.403-5.222C70.575,126.564,58.577,105.602,66.496,69.806z M84.805,212.279
		c-1.329,11.599-1.767,21.214-1.302,28.581l1.005,15.926l-4.7-15.25c-4.913-15.938-7.403-32.541-7.403-49.344
		c0-14.346,1.818-28.608,5.403-42.391l1.283-4.931l2.245,4.574C87.327,161.648,86.232,199.829,84.805,212.279z"/>
	<path fill="#FFFFFF" d="M147.762,319.829c-0.241,0.336-0.164,0.803,0.171,1.045c26.923,19.332,58.732,29.553,91.99,29.553
		c22.988,0,45.15-4.83,65.873-14.357c20.023-9.203,37.615-22.264,52.295-38.818c0.275-0.309,0.246-0.781-0.063-1.055
		c-0.311-0.275-0.783-0.246-1.055,0.063c-29.684,33.475-72.346,52.672-117.051,52.672c-32.941,0-64.45-10.122-91.118-29.271
		C148.47,319.418,148.003,319.495,147.762,319.829z"/>
	<path fill="#FFFFFF" d="M355.871,87.231c0.18,0,0.361-0.065,0.504-0.196c0.305-0.279,0.324-0.751,0.047-1.056
		c-14.65-16.007-32.07-28.62-51.777-37.487c-20.396-9.179-42.172-13.833-64.721-13.833c-8.461,0-16.953,0.676-25.238,2.007
		c-0.408,0.065-0.686,0.449-0.619,0.856c0.064,0.407,0.449,0.685,0.855,0.619c8.207-1.318,16.619-1.987,25.002-1.987
		c43.768,0,85.828,18.528,115.395,50.834C355.466,87.149,355.667,87.231,355.871,87.231z"/>
	<circle fill="#FFFFFF" cx="384.582" cy="190.603" r="8.806"/>
	
		<rect x="219.736" y="55.155" transform="matrix(-0.9895 0.1445 -0.1445 -0.9895 448.4873 78.757)" fill="#FFFFFF" width="3.294" height="1.023"/>
	<path fill="#FFFFFF" d="M240.708,50.261l-0.164,8.059l3.094,0.063c2.523,0.051,4.154-1.655,4.203-4.033
		c0.048-2.4-1.557-3.977-3.992-4.026L240.708,50.261z M246.507,54.343c-0.035,1.775-0.982,3.076-2.937,3.037l-1.728-0.035
		l0.123-6.056l1.734,0.034C245.727,51.364,246.539,52.803,246.507,54.343z"/>
	<polygon fill="#FFFFFF" points="262.026,52.831 262.154,51.827 256.5,51.107 255.482,59.102 261.195,59.829 261.484,58.845 
		256.849,58.256 257.189,55.577 261.406,56.114 261.535,55.11 257.317,54.573 257.61,52.269 	"/>
	<path fill="#FFFFFF" d="M272.992,54.764c1.196,0.278,1.498,0.943,1.482,1.632l1.263,0.293c0.132-1.08-0.45-2.362-2.489-2.835
		c-1.895-0.44-3.065,0.286-3.346,1.49c-0.254,1.097,0.256,1.911,2.184,2.842c1.547,0.747,1.865,1.253,1.688,2.012
		c-0.165,0.711-0.788,1.129-2.029,0.84c-1.17-0.271-1.73-0.905-1.738-1.868l-1.264-0.294c-0.111,1.288,0.592,2.57,2.703,3.059
		c2.082,0.484,3.344-0.267,3.646-1.566c0.238-1.027-0.004-1.996-2.277-3.097c-1.373-0.661-1.76-1.044-1.598-1.744
		C271.382,54.815,272.024,54.54,272.992,54.764z"/>
	
		<rect x="279.748" y="60.438" transform="matrix(-0.3085 0.9512 -0.9512 -0.3085 429.4146 -190.0211)" fill="#FFFFFF" width="8.06" height="1.277"/>
	<path fill="#FFFFFF" d="M299.703,65.455c0.342-1.407-0.41-2.866-2.287-3.67c-2.406-1.033-4.438,0.073-5.39,2.293
		c-0.903,2.108-0.376,4.256,1.909,5.236c1.367,0.587,2.292,0.36,2.883-0.016c-0.189,0.485-0.291,0.816-0.304,0.998l0.892,0.382
		l1.725-4.028l-3.279-1.407l-0.398,0.931l2.135,0.916l-0.032,0.075c-0.489,1.14-1.358,2.04-3.071,1.306
		c-1.747-0.749-1.846-2.439-1.211-3.918c0.678-1.584,1.938-2.646,3.734-1.876c1.266,0.543,1.6,1.403,1.521,2.274L299.703,65.455z"/>
	<path fill="#FFFFFF" d="M310.023,68.071l-1.443-0.822l-3.988,7.006l1.043,0.595l1.523-2.678c0.719-1.263,1.418-2.5,1.799-3.294
		l0.016,0.009c0,1.046,0.254,6.032,0.359,8.067l1.359,0.773l3.986-7.006l-1.039-0.591l-1.484,2.61
		c-0.654,1.146-1.299,2.269-1.719,3.179l-0.016-0.009C310.449,74.918,310.142,70.293,310.023,68.071z"/>
	
		<rect x="326.866" y="84.755" transform="matrix(0.7763 0.6304 -0.6304 0.7763 127.2469 -188.016)" fill="#FFFFFF" width="3.293" height="1.021"/>
	
		<rect x="159.976" y="299.414" transform="matrix(-0.595 0.8037 -0.8037 -0.595 498.0328 351.2895)" fill="#FFFFFF" width="1.064" height="3.423"/>
	<path fill="#FFFFFF" d="M183.424,312.768c0.403-1.057,0.136-2.497-1.805-3.486c-1.801-0.918-3.165-0.478-3.749,0.668
		c-0.531,1.043-0.221,1.992,1.491,3.416c1.376,1.141,1.569,1.731,1.201,2.454c-0.344,0.677-1.077,0.942-2.26,0.339
		c-1.112-0.566-1.519-1.346-1.287-2.322l-1.201-0.613c-0.434,1.275-0.047,2.744,1.963,3.768c1.981,1.01,3.443,0.565,4.072-0.668
		c0.497-0.979,0.497-2.018-1.524-3.699c-1.219-1.012-1.513-1.494-1.174-2.16c0.346-0.678,1.063-0.797,1.983-0.326
		c1.138,0.58,1.276,1.326,1.088,2.02L183.424,312.768z"/>
	<polygon fill="#FFFFFF" points="191.69,323.04 194.326,316.198 196.995,317.226 197.375,316.243 190.791,313.708 190.412,314.689 
		193.08,315.717 190.443,322.56 	"/>
	<path fill="#FFFFFF" d="M205.804,318.894l-1.301-0.341l-1.282,4.875c-0.668,2.533,0.709,3.753,2.541,4.234
		c1.854,0.487,3.637,0.16,4.336-2.498l1.267-4.807l-1.291-0.341l-1.281,4.868c-0.475,1.8-1.49,2.127-2.744,1.797
		c-1.075-0.283-2.012-1.072-1.526-2.919L205.804,318.894z"/>
	<path fill="#FFFFFF" d="M219.57,322.004l-1.169,8.303l3.187,0.449c2.602,0.367,4.496-1.192,4.84-3.641
		c0.348-2.472-1.113-4.301-3.623-4.654L219.57,322.004z M225.052,326.941c-0.258,1.83-1.396,3.054-3.41,2.771l-1.779-0.252
		l0.879-6.237l1.785,0.252C224.615,323.768,225.275,325.355,225.052,326.941z"/>
	
		<rect x="234.782" y="323.65" transform="matrix(-0.999 -0.0441 0.0441 -0.999 456.2033 665.7474)" fill="#FFFFFF" width="1.328" height="8.382"/>
	<path fill="#FFFFFF" d="M244.488,327.993c0.131,2.401,1.704,4.225,4.368,4.08c2.832-0.156,4.12-2.275,3.993-4.584
		c-0.139-2.502-1.824-4.175-4.359-4.035C245.773,323.603,244.355,325.59,244.488,327.993z M251.466,327.584
		c0.096,1.731-0.604,3.33-2.611,3.438c-1.857,0.103-2.889-1.366-2.986-3.142c-0.096-1.756,0.676-3.271,2.623-3.377
		C250.398,324.4,251.369,325.823,251.466,327.584z"/>
	
		<rect x="270.276" y="323.766" transform="matrix(-0.9736 0.2282 -0.2282 -0.9736 610.8059 577.9661)" fill="#FFFFFF" width="3.423" height="1.063"/>
	<path fill="#FFFFFF" d="M209.966,111.298c-6.271,0.086-16.093,0.598-25.278,1.669c-22.383,2.611-25.87,6.605-26.408,9.793
		l4.916,0.887c0.015-0.034,1.753-3.433,22.939-5.813c3.188-0.358,6.438-0.648,9.565-0.877c-3.978,3.051-7.168,7.16-8.961,11.95
		c-0.659,1.759-1.301,3.497-1.937,5.216c-4.024,10.876-7.84,21.192-13.68,31.408c-0.502,0.744-0.977,1.553-1.425,2.436l4.371,2.421
		c0.428-0.711,0.846-1.42,1.254-2.13c4.175-6.035,10.732-5.988,18.839-5.927l1.694,0.01c0.635,0.003,1.272,0,1.909-0.006
		c-3.134,4.694-5.647,10.536-3.231,14.65c4.929,8.393,32.696,0.206,32.97,0.112c8.894-3.072,17.848-10.115,22.699-19.318
		c7.844,0.993,11.594,2.908,11.459,5.851c-0.338,7.368-18.463,12.344-27.174,14.735c-1.797,0.493-3.349,0.919-4.583,1.304
		l-8.147,2.538l8.229,2.26c1.305,0.357,2.682,0.517,4.114,0.517c6.659,0,14.435-3.447,20.905-6.317
		c2.156-0.956,4.193-1.859,5.873-2.486c1.85-0.691,3.725-1.327,5.709-2c4.68-1.587,9.469-3.211,13.93-5.585
		c1.365,1.265,3.059,2.5,5.117,3.723c6.002,3.562,20.654,8.369,28.938,3.917c2.576-1.384,5.709-4.289,6.004-10.271l-4.994-0.245
		c-0.146,2.971-1.25,4.97-3.377,6.112c-6.148,3.304-18.713-0.663-24.017-3.812c-1.235-0.733-2.308-1.442-3.224-2.152
		c0.496-0.353,0.988-0.72,1.471-1.102c5.558-4.397,9.268-10.274,11.204-17.757h25.772v-5h-24.774
		c0.508-3.524,0.695-7.346,0.55-11.493l-0.068-1.981l-1.945-0.384c-8.042-1.591-13.259,7.134-16.357,13.858h-10.07v5h7.915
		c-2.944,7.104-4.06,12.682-1.342,17.608c-3.913,1.973-8.17,3.416-12.337,4.829c-0.167,0.057-0.335,0.114-0.503,0.171
		c1.291-1.721,2.08-3.631,2.177-5.758c0.369-8.041-9.074-10.105-14.388-10.854c1.274-3.741,1.862-7.749,1.535-11.925l-0.115-1.466
		l-1.338-0.611c-4.09-1.87-9.214-0.269-12.187,3.805c-2.66,3.643-3.398,6.688-2.26,9.31c1.145,2.631,3.848,3.99,7.1,4.789
		c-4.354,7.317-11.77,12.921-19.133,15.464c-7.961,2.751-25.396,4.859-27.025,2.083c-1.291-2.199,1.904-8.116,5.123-12.219
		c2.994-0.041,6.023-0.032,8.943,0.212c0.642,0.054,1.707,0.324,2.836,0.61c3.185,0.807,6.795,1.722,9.498,0.344
		c3.155-1.611,3.844-3.684,3.865-5.14c0.035-2.428-1.714-4.628-5.201-6.54c-6.004-3.29-14.639-0.866-19.717,3.084
		c-0.539,0.42-1.441,1.288-2.498,2.466c-0.132,0.003-0.264,0.006-0.396,0.008c-1.814,0.034-3.635,0.068-5.426,0.062l-1.674-0.01
		c-4.738-0.033-9.562-0.072-13.877,1.302c3.502-7.454,6.283-14.973,9.17-22.776c0.633-1.713,1.274-3.444,1.93-5.197
		c2.937-7.846,10.795-13.591,18.966-14.37c1.804-0.022,3.261-0.002,4.252,0.052l0.427-4.979
		C213.363,111.164,211.656,111.146,209.966,111.298z M294.236,133.127c0.005,3.19-0.214,6.148-0.656,8.882h-7.199
		C288.396,138.057,291.11,133.959,294.236,133.127z M283.455,148.494l0.244-0.577c0.118-0.281,0.246-0.587,0.382-0.908h8.352
		c-1.744,5.816-4.759,10.402-9.099,13.835c-0.558,0.441-1.129,0.86-1.715,1.26C279.985,158.9,280.738,154.942,283.455,148.494z
		 M242.49,150.125c-0.346-0.795,0.295-2.429,1.713-4.37c1.035-1.42,2.756-2.546,4.489-2.546c0.065,0,0.134,0.001,0.2,0.004
		c0.021,3.165-0.577,6.206-1.65,9.062C244.466,151.726,242.873,151.006,242.49,150.125z M221.505,156.107
		c1.926,1.054,2.445,1.809,2.572,2.05c-0.104,0.132-0.395,0.427-1.105,0.79c-1.032,0.521-4.139-0.265-5.996-0.736
		c-1.335-0.338-2.596-0.658-3.648-0.746c-1.238-0.103-2.479-0.167-3.72-0.205C213.408,155.271,218.401,154.403,221.505,156.107z"/>
	<path fill="#FFFFFF" d="M290.199,271.506c1.85-0.688,3.725-1.324,5.709-1.998c4.68-1.588,9.469-3.211,13.932-5.586
		c1.365,1.266,3.057,2.5,5.117,3.723c6,3.563,20.648,8.369,28.938,3.917c2.574-1.384,5.709-4.29,6.004-10.271l-4.994-0.246
		c-0.148,2.97-1.252,4.97-3.377,6.111c-6.154,3.305-18.713-0.664-24.018-3.813c-1.234-0.732-2.307-1.441-3.223-2.151
		c0.496-0.353,0.988-0.72,1.471-1.103c9.137-7.227,13.309-18.43,12.75-34.25l-0.068-1.979l-1.943-0.385
		c-9.787-1.939-15.396,11.415-18.088,17.832l-0.238,0.568c-3.086,7.324-4.305,13.033-1.529,18.064
		c-3.912,1.973-8.172,3.417-12.338,4.83c-0.166,0.057-0.334,0.113-0.501,0.17c1.29-1.721,2.079-3.631,2.176-5.758
		c0.369-8.041-9.074-10.105-14.39-10.854c1.277-3.742,1.865-7.75,1.537-11.926l-0.114-1.467l-1.339-0.611
		c-4.084-1.867-9.213-0.27-12.188,3.805c-2.658,3.645-3.398,6.689-2.259,9.312c1.144,2.632,3.847,3.989,7.099,4.788
		c-4.354,7.318-11.77,12.922-19.133,15.465c-7.962,2.752-25.395,4.857-27.025,2.084c-1.291-2.199,1.904-8.117,5.123-12.221
		c2.996-0.04,6.022-0.031,8.942,0.213c0.642,0.053,1.707,0.324,2.836,0.609c3.187,0.809,6.794,1.724,9.499,0.344
		c3.155-1.611,3.844-3.684,3.865-5.141c0.035-2.428-1.715-4.627-5.2-6.539c-6.002-3.289-14.64-0.866-19.717,3.086
		c-0.539,0.418-1.44,1.287-2.498,2.466c-0.132,0.002-0.263,0.005-0.396,0.007c-1.816,0.035-3.641,0.074-5.428,0.063l-1.675-0.01
		c-4.739-0.035-9.563-0.07-13.878,1.303c3.503-7.457,6.285-14.978,9.173-22.783c0.633-1.711,1.272-3.439,1.929-5.19
		c2.937-7.845,10.795-13.59,18.965-14.368c1.801-0.02,3.26-0.002,4.252,0.051l0.427-4.979c-1.703-0.201-3.411-0.216-5.099-0.066
		c-6.271,0.086-16.094,0.6-25.279,1.67c-22.382,2.611-25.869,6.604-26.407,9.793l4.916,0.888c0.015-0.034,1.753-3.433,22.938-5.813
		c3.187-0.356,6.438-0.647,9.564-0.877c-3.979,3.053-7.168,7.162-8.962,11.951c-0.658,1.756-1.3,3.491-1.935,5.208
		c-4.024,10.88-7.84,21.197-13.682,31.415c-0.502,0.744-0.979,1.555-1.425,2.438l4.37,2.42c0.429-0.711,0.846-1.42,1.254-2.129
		c4.177-6.037,10.744-5.989,18.84-5.928l1.693,0.01c0.637,0.002,1.272,0,1.91-0.006c-3.135,4.694-5.647,10.537-3.231,14.649
		c4.928,8.396,32.696,0.207,32.97,0.112c8.893-3.071,17.848-10.115,22.699-19.318c7.844,0.994,11.594,2.909,11.459,5.852
		c-0.337,7.369-18.464,12.344-27.176,14.735c-1.795,0.493-3.348,0.919-4.581,1.304l-8.15,2.539l8.231,2.26
		c1.304,0.357,2.683,0.517,4.113,0.517c6.662,0,14.436-3.448,20.906-6.317C286.481,273.038,288.518,272.135,290.199,271.506z
		 M312.775,243.821l0.24-0.576c1.777-4.234,5.66-13.492,10.539-14.789c0.021,12.823-3.555,21.904-10.9,27.715
		c-0.559,0.44-1.129,0.861-1.717,1.261C309.304,254.228,310.056,250.268,312.775,243.821z M250.824,251.433
		c1.926,1.056,2.446,1.81,2.572,2.051c-0.104,0.132-0.395,0.427-1.105,0.789c-1.027,0.528-4.138-0.263-5.998-0.735
		c-1.334-0.338-2.594-0.658-3.647-0.746c-1.237-0.103-2.478-0.168-3.72-0.205C242.727,250.599,247.718,249.729,250.824,251.433z
		 M276.56,247.602c-2.773-0.548-4.368-1.268-4.751-2.148c-0.347-0.795,0.295-2.43,1.712-4.371c1.036-1.42,2.756-2.547,4.49-2.547
		c0.068,0,0.134,0.002,0.201,0.004C278.233,241.706,277.634,244.747,276.56,247.602z"/>
</g>
</svg>
