<?xml version="1.0" encoding="utf-8"?>
<!-- Generator: Adobe Illustrator 16.0.0, SVG Export Plug-In . SVG Version: 6.00 Build 0)  -->
<!DOCTYPE svg PUBLIC "-//W3C//DTD SVG 1.1//EN" "http://www.w3.org/Graphics/SVG/1.1/DTD/svg11.dtd">
<svg version="1.1" id="圖層_1" xmlns="http://www.w3.org/2000/svg" xmlns:xlink="http://www.w3.org/1999/xlink" x="0px" y="0px"
	 width="191.62px" height="169.109px" viewBox="158.28 111.204 191.62 169.109"
	 enable-background="new 158.28 111.204 191.62 169.109" xml:space="preserve">
<g>
	<path fill="#FFFFFF" d="M209.966,111.298c-6.271,0.086-16.093,0.598-25.278,1.669c-22.383,2.611-25.87,6.605-26.408,9.793
		l4.916,0.887c0.015-0.034,1.753-3.433,22.939-5.813c3.188-0.358,6.438-0.648,9.565-0.877c-3.978,3.051-7.168,7.16-8.961,11.95
		c-0.659,1.759-1.301,3.497-1.937,5.216c-4.024,10.876-7.84,21.192-13.68,31.408c-0.502,0.744-0.977,1.553-1.425,2.436l4.371,2.421
		c0.428-0.711,0.846-1.42,1.254-2.13c4.175-6.035,10.732-5.988,18.839-5.927l1.694,0.01c0.635,0.003,1.272,0,1.909-0.006
		c-3.134,4.694-5.647,10.536-3.231,14.65c4.929,8.393,32.696,0.206,32.97,0.112c8.894-3.072,17.848-10.115,22.699-19.318
		c7.844,0.993,11.594,2.908,11.459,5.851c-0.338,7.368-18.463,12.344-27.175,14.735c-1.797,0.493-3.349,0.919-4.583,1.304
		l-8.146,2.538l8.229,2.26c1.305,0.357,2.682,0.518,4.114,0.518c6.659,0,14.435-3.447,20.905-6.317
		c2.156-0.956,4.193-1.859,5.873-2.486c1.85-0.691,3.725-1.327,5.709-2c4.68-1.587,9.469-3.211,13.93-5.585
		c1.365,1.265,3.059,2.5,5.117,3.723c6.002,3.562,20.654,8.369,28.938,3.917c2.576-1.384,5.709-4.289,6.004-10.271l-4.994-0.245
		c-0.145,2.971-1.25,4.97-3.377,6.112c-6.148,3.304-18.713-0.663-24.017-3.812c-1.235-0.733-2.308-1.442-3.224-2.152
		c0.496-0.353,0.988-0.72,1.471-1.102c5.559-4.397,9.268-10.274,11.204-17.757h25.772v-5h-24.775
		c0.51-3.524,0.695-7.346,0.551-11.493l-0.068-1.981l-1.945-0.384c-8.041-1.591-13.258,7.134-16.356,13.858h-10.069v5h7.914
		c-2.943,7.104-4.06,12.682-1.342,17.608c-3.912,1.973-8.17,3.416-12.337,4.829c-0.167,0.057-0.335,0.114-0.503,0.171
		c1.291-1.721,2.08-3.631,2.178-5.758c0.368-8.041-9.074-10.105-14.389-10.854c1.273-3.741,1.861-7.749,1.535-11.925l-0.115-1.466
		l-1.338-0.611c-4.09-1.87-9.214-0.269-12.188,3.805c-2.66,3.643-3.397,6.688-2.26,9.31c1.145,2.631,3.848,3.99,7.1,4.789
		c-4.354,7.317-11.77,12.921-19.133,15.464c-7.961,2.751-25.396,4.859-27.024,2.083c-1.291-2.199,1.903-8.116,5.123-12.219
		c2.993-0.041,6.022-0.032,8.942,0.212c0.643,0.054,1.707,0.324,2.836,0.61c3.186,0.807,6.795,1.722,9.498,0.344
		c3.155-1.611,3.844-3.684,3.865-5.14c0.035-2.428-1.714-4.628-5.201-6.54c-6.004-3.29-14.639-0.866-19.717,3.084
		c-0.539,0.42-1.441,1.288-2.498,2.466c-0.132,0.003-0.264,0.006-0.396,0.008c-1.813,0.034-3.635,0.068-5.425,0.062l-1.674-0.01
		c-4.738-0.033-9.562-0.072-13.877,1.302c3.502-7.454,6.283-14.973,9.17-22.776c0.633-1.713,1.274-3.444,1.93-5.197
		c2.937-7.846,10.795-13.591,18.966-14.37c1.804-0.022,3.261-0.002,4.252,0.052l0.427-4.979
		C213.363,111.164,211.656,111.146,209.966,111.298z M294.236,133.127c0.006,3.19-0.214,6.148-0.656,8.882h-7.199
		C288.396,138.057,291.11,133.959,294.236,133.127z M283.455,148.494l0.244-0.577c0.118-0.281,0.246-0.587,0.383-0.908h8.352
		c-1.744,5.816-4.76,10.402-9.1,13.835c-0.558,0.441-1.129,0.86-1.715,1.26C279.985,158.9,280.738,154.942,283.455,148.494z
		 M242.49,150.125c-0.346-0.795,0.295-2.429,1.713-4.37c1.035-1.42,2.756-2.546,4.489-2.546c0.065,0,0.134,0.001,0.2,0.004
		c0.021,3.165-0.577,6.206-1.65,9.062C244.466,151.726,242.873,151.006,242.49,150.125z M221.505,156.107
		c1.926,1.054,2.445,1.809,2.572,2.05c-0.104,0.132-0.396,0.427-1.105,0.79c-1.032,0.521-4.139-0.265-5.996-0.736
		c-1.335-0.338-2.596-0.658-3.648-0.746c-1.238-0.103-2.479-0.167-3.72-0.205C213.408,155.271,218.401,154.403,221.505,156.107z"/>
	<path fill="#FFFFFF" d="M290.199,271.506c1.85-0.688,3.725-1.324,5.709-1.998c4.68-1.588,9.469-3.211,13.932-5.586
		c1.365,1.266,3.059,2.5,5.117,3.723c6,3.563,20.648,8.369,28.939,3.918c2.572-1.385,5.709-4.291,6.004-10.271l-4.994-0.246
		c-0.148,2.971-1.252,4.971-3.377,6.111c-6.154,3.305-18.713-0.664-24.02-3.813c-1.232-0.731-2.307-1.44-3.223-2.151
		c0.496-0.353,0.988-0.719,1.471-1.103c9.139-7.228,13.311-18.43,12.75-34.25l-0.066-1.979l-1.943-0.385
		c-9.787-1.938-15.396,11.416-18.088,17.832l-0.238,0.568c-3.086,7.324-4.305,13.033-1.529,18.064
		c-3.912,1.973-8.172,3.416-12.338,4.83c-0.166,0.057-0.334,0.112-0.501,0.17c1.29-1.722,2.079-3.631,2.176-5.758
		c0.369-8.041-9.074-10.105-14.39-10.854c1.277-3.742,1.865-7.75,1.537-11.927l-0.115-1.467l-1.338-0.61
		c-4.084-1.867-9.213-0.271-12.188,3.805c-2.657,3.646-3.397,6.688-2.259,9.312c1.145,2.633,3.847,3.99,7.1,4.789
		c-4.354,7.317-11.771,12.922-19.134,15.465c-7.962,2.752-25.396,4.856-27.024,2.084c-1.291-2.199,1.903-8.117,5.123-12.221
		c2.996-0.041,6.021-0.031,8.941,0.213c0.643,0.053,1.707,0.323,2.836,0.608c3.188,0.81,6.794,1.724,9.499,0.345
		c3.155-1.611,3.845-3.685,3.865-5.142c0.034-2.428-1.716-4.627-5.2-6.539c-6.002-3.289-14.641-0.866-19.717,3.086
		c-0.539,0.418-1.439,1.287-2.498,2.466c-0.133,0.002-0.264,0.006-0.396,0.008c-1.815,0.035-3.641,0.073-5.428,0.063l-1.675-0.01
		c-4.739-0.035-9.563-0.07-13.878,1.303c3.503-7.457,6.285-14.979,9.173-22.783c0.633-1.711,1.272-3.439,1.929-5.189
		c2.938-7.846,10.795-13.59,18.965-14.368c1.801-0.021,3.26-0.002,4.252,0.051l0.428-4.979c-1.703-0.2-3.411-0.215-5.1-0.065
		c-6.271,0.086-16.094,0.601-25.279,1.67c-22.381,2.611-25.868,6.604-26.406,9.793l4.916,0.888
		c0.015-0.033,1.753-3.433,22.938-5.813c3.188-0.355,6.438-0.646,9.564-0.877c-3.979,3.053-7.168,7.162-8.962,11.951
		c-0.658,1.756-1.3,3.49-1.935,5.207c-4.024,10.881-7.84,21.197-13.683,31.416c-0.502,0.744-0.979,1.555-1.425,2.438l4.369,2.42
		c0.43-0.711,0.847-1.42,1.255-2.129c4.177-6.037,10.743-5.988,18.84-5.928l1.692,0.01c0.638,0.002,1.272,0,1.91-0.006
		c-3.135,4.693-5.646,10.537-3.23,14.648c4.928,8.396,32.695,0.207,32.97,0.112c8.894-3.071,17.849-10.114,22.699-19.317
		c7.844,0.994,11.594,2.908,11.459,5.852c-0.337,7.369-18.464,12.344-27.176,14.734c-1.796,0.494-3.349,0.92-4.581,1.305
		l-8.15,2.539l8.231,2.26c1.304,0.357,2.683,0.518,4.112,0.518c6.662,0,14.437-3.448,20.906-6.317
		C286.481,273.038,288.518,272.135,290.199,271.506z M312.775,243.82l0.24-0.575c1.777-4.234,5.66-13.492,10.539-14.789
		c0.021,12.823-3.555,21.903-10.9,27.715c-0.559,0.44-1.129,0.861-1.717,1.261C309.304,254.229,310.056,250.268,312.775,243.82z
		 M250.824,251.434c1.926,1.056,2.446,1.81,2.572,2.051c-0.104,0.132-0.395,0.427-1.105,0.789c-1.026,0.527-4.138-0.264-5.998-0.735
		c-1.334-0.338-2.594-0.658-3.646-0.746c-1.236-0.103-2.479-0.168-3.721-0.205C242.727,250.6,247.718,249.729,250.824,251.434z
		 M276.56,247.602c-2.773-0.547-4.368-1.268-4.751-2.147c-0.347-0.795,0.295-2.431,1.712-4.371c1.036-1.42,2.756-2.547,4.49-2.547
		c0.068,0,0.134,0.002,0.201,0.004C278.233,241.706,277.634,244.747,276.56,247.602z"/>
</g>
</svg>
